<svg width="24" height="24" viewBox="0 0 24 24" fill="none" xmlns="http://www.w3.org/2000/svg">
<path fill-rule="evenodd" clip-rule="evenodd" d="M12 1.89478C6.41699 1.89478 1.89474 6.42322 1.89474 12C1.89474 16.4665 4.79171 20.2505 8.80528 21.5904C9.30775 21.6835 9.49385 21.3733 9.49385 21.1004C9.49385 20.8584 9.48765 20.2257 9.48145 19.382C6.67133 19.99 6.0758 18.0297 6.0758 18.0297C5.61676 16.8635 4.953 16.5533 4.953 16.5533C4.0349 15.9268 5.02123 15.9392 5.02123 15.9392C6.03238 16.0136 6.57207 16.9813 6.57207 16.9813C7.47156 18.526 8.93555 18.0793 9.51246 17.8188C9.60551 17.1674 9.86605 16.7208 10.1514 16.4665C7.90579 16.2121 5.54852 15.3436 5.54852 11.4728C5.54852 10.3686 5.93933 9.46907 6.59068 8.76189C6.48523 8.50755 6.13784 7.47779 6.68994 6.08824C6.68994 6.08824 7.5398 5.8153 9.46904 7.1242C10.2755 6.90088 11.1377 6.78922 12 6.78302C12.8561 6.78922 13.7245 6.90088 14.531 7.1242C16.4602 5.8153 17.3101 6.08824 17.3101 6.08824C17.8622 7.47779 17.5148 8.50755 17.4093 8.76189C18.0545 9.46907 18.4453 10.3686 18.4453 11.4728C18.4453 15.3561 16.0818 16.2059 13.83 16.4602C14.1898 16.7704 14.5186 17.3908 14.5186 18.3337C14.5186 19.686 14.5062 20.7716 14.5062 21.1066C14.5062 21.3795 14.6861 21.6897 15.2009 21.5904C19.2145 20.2505 22.1053 16.4665 22.1053 12.0062C22.1053 6.42322 17.583 1.89478 12 1.89478Z" fill="#191717"/>
</svg>
